<svg xmlns="http://www.w3.org/2000/svg" xmlns:xlink="http://www.w3.org/1999/xlink" width="500" zoomAndPan="magnify" viewBox="0 0 375 374.999991" height="500" preserveAspectRatio="xMidYMid meet" version="1.0"><defs><clipPath id="93d38b765b"><path d="M 60.316406 60.316406 L 314.683594 60.316406 L 314.683594 314.683594 L 60.316406 314.683594 Z M 60.316406 60.316406 " clip-rule="nonzero"/></clipPath><clipPath id="24011c9e78"><path d="M 187.5 60.316406 C 117.257812 60.316406 60.316406 117.257812 60.316406 187.5 C 60.316406 257.742188 117.257812 314.683594 187.5 314.683594 C 257.742188 314.683594 314.683594 257.742188 314.683594 187.5 C 314.683594 117.257812 257.742188 60.316406 187.5 60.316406 Z M 187.5 60.316406 " clip-rule="nonzero"/></clipPath><clipPath id="a572399d8f"><path d="M 60.316406 0 L 118.113281 0 L 118.113281 187.5 L 60.316406 187.5 Z M 60.316406 0 " clip-rule="nonzero"/></clipPath><clipPath id="e73ae3b388"><path d="M 79.59375 2.578125 C 82.546875 1.023438 85.925781 0 89.230469 0 C 92.535156 0 95.71875 0.875 98.648438 2.433594 C 98.710938 2.480469 98.773438 2.480469 98.835938 2.53125 C 109.847656 8.761719 117.957031 25.210938 118.113281 46.15625 L 118.113281 187.5 L 60.316406 187.5 L 60.316406 46.261719 C 60.472656 25.113281 68.457031 8.664062 79.59375 2.578125 Z M 79.59375 2.578125 " clip-rule="nonzero"/></clipPath><clipPath id="e094f667c3"><path d="M 118.113281 118.113281 L 256.886719 118.113281 L 256.886719 256.886719 L 118.113281 256.886719 Z M 118.113281 118.113281 " clip-rule="nonzero"/></clipPath><clipPath id="0ad3cb4ba3"><path d="M 187.5 118.113281 C 149.179688 118.113281 118.113281 149.179688 118.113281 187.5 C 118.113281 225.820312 149.179688 256.886719 187.5 256.886719 C 225.820312 256.886719 256.886719 225.820312 256.886719 187.5 C 256.886719 149.179688 225.820312 118.113281 187.5 118.113281 Z M 187.5 118.113281 " clip-rule="nonzero"/></clipPath><clipPath id="130dbc9c00"><path d="M 150.054688 150.054688 L 224.945312 150.054688 L 224.945312 224.945312 L 150.054688 224.945312 Z M 150.054688 150.054688 " clip-rule="nonzero"/></clipPath><clipPath id="fafe10f27b"><path d="M 187.5 150.054688 C 166.820312 150.054688 150.054688 166.820312 150.054688 187.5 C 150.054688 208.179688 166.820312 224.945312 187.5 224.945312 C 208.179688 224.945312 224.945312 208.179688 224.945312 187.5 C 224.945312 166.820312 208.179688 150.054688 187.5 150.054688 Z M 187.5 150.054688 " clip-rule="nonzero"/></clipPath><clipPath id="15091fb1ca"><path d="M 256.726562 187.5 L 314.527344 187.5 L 314.527344 375 L 256.726562 375 Z M 256.726562 187.5 " clip-rule="nonzero"/></clipPath><clipPath id="9ae853be21"><path d="M 295.25 372.421875 C 292.296875 373.976562 288.917969 375 285.613281 375 C 282.304688 375 279.125 374.125 276.191406 372.566406 C 276.128906 372.519531 276.066406 372.519531 276.003906 372.46875 C 264.992188 366.238281 256.882812 349.789062 256.726562 328.84375 L 256.726562 187.5 L 314.527344 187.5 L 314.527344 328.738281 C 314.371094 349.886719 306.386719 366.335938 295.25 372.421875 Z M 295.25 372.421875 " clip-rule="nonzero"/></clipPath></defs><rect x="-37.5" width="450" fill="#ffffff" y="-37.499999" height="449.999989" fill-opacity="1"/><rect x="-37.5" width="450" fill="#1a1a1a" y="-37.499999" height="449.999989" fill-opacity="1"/><g clip-path="url(#93d38b765b)"><g clip-path="url(#24011c9e78)"><path fill="#f2f2f2" d="M 60.316406 60.316406 L 314.683594 60.316406 L 314.683594 314.683594 L 60.316406 314.683594 Z M 60.316406 60.316406 " fill-opacity="1" fill-rule="nonzero"/></g></g><g clip-path="url(#a572399d8f)"><g clip-path="url(#e73ae3b388)"><path fill="#f2f2f2" d="M 60.316406 0 L 118.113281 0 L 118.113281 187.5 L 60.316406 187.5 Z M 60.316406 0 " fill-opacity="1" fill-rule="nonzero"/></g></g><g clip-path="url(#e094f667c3)"><g clip-path="url(#0ad3cb4ba3)"><path fill="#1a1a1a" d="M 118.113281 118.113281 L 256.886719 118.113281 L 256.886719 256.886719 L 118.113281 256.886719 Z M 118.113281 118.113281 " fill-opacity="1" fill-rule="nonzero"/></g></g><g clip-path="url(#130dbc9c00)"><g clip-path="url(#fafe10f27b)"><path fill="#f2f2f2" d="M 150.054688 150.054688 L 224.945312 150.054688 L 224.945312 224.945312 L 150.054688 224.945312 Z M 150.054688 150.054688 " fill-opacity="1" fill-rule="nonzero"/></g></g><g clip-path="url(#15091fb1ca)"><g clip-path="url(#9ae853be21)"><path fill="#f2f2f2" d="M 314.527344 375 L 256.726562 375 L 256.726562 187.5 L 314.527344 187.5 Z M 314.527344 375 " fill-opacity="1" fill-rule="nonzero"/></g></g></svg>